<?xml version="1.0" standalone="no"?>
<!DOCTYPE svg PUBLIC "-//W3C//DTD SVG 20010904//EN"
 "http://www.w3.org/TR/2001/REC-SVG-20010904/DTD/svg10.dtd">
<svg version="1.0" xmlns="http://www.w3.org/2000/svg"
 width="1200.000000pt" height="1200.000000pt" viewBox="0 0 1200.000000 1200.000000"
 preserveAspectRatio="xMidYMid meet">
<metadata>
Created by potrace 1.11, written by Peter Selinger 2001-2013
</metadata>
<g transform="translate(0.000000,1200.000000) scale(0.100000,-0.100000)"
fill="#000000" stroke="none">
<path d="M7525 11792 c-137 -92 -288 -194 -335 -227 -199 -138 -660 -490 -790
-601 -14 -12 -61 -52 -105 -90 -355 -303 -727 -678 -960 -969 -22 -28 -43 -52
-46 -55 -19 -16 -205 -276 -284 -395 -247 -376 -416 -733 -531 -1125 -44 -147
-93 -377 -109 -510 -4 -30 -9 -62 -10 -70 -3 -13 -10 -84 -21 -205 -6 -60 -6
-485 0 -525 3 -19 8 -71 11 -114 4 -43 8 -86 10 -95 3 -16 13 -90 20 -149 2
-18 6 -45 9 -60 3 -15 8 -43 11 -62 12 -71 66 -308 94 -410 16 -58 30 -111 32
-119 3 -8 -15 -20 -51 -33 -61 -22 -304 -97 -334 -103 -10 -3 -33 -9 -50 -14
-131 -42 -659 -163 -856 -196 -19 -3 -62 -10 -95 -16 -33 -6 -76 -13 -95 -15
-19 -2 -64 -8 -100 -14 -108 -17 -314 -39 -322 -34 -3 2 -9 1 -12 -4 -8 -13
460 -1 536 13 9 2 52 6 95 10 43 3 89 8 103 10 14 2 50 7 80 10 30 3 66 8 80
10 14 2 45 7 70 10 52 7 69 10 165 26 39 6 77 12 85 14 25 4 90 16 195 37 55
10 111 21 125 24 14 3 54 11 90 20 121 27 285 65 315 73 30 7 30 6 53 -64 26
-78 99 -279 112 -310 5 -11 36 -83 69 -160 74 -176 105 -242 197 -430 40 -82
73 -154 72 -160 -1 -11 -10 -14 -218 -75 -121 -35 -496 -131 -560 -144 -14 -2
-92 -18 -175 -35 -145 -28 -232 -45 -305 -56 -19 -3 -46 -7 -60 -10 -14 -3
-43 -7 -65 -10 -22 -2 -56 -7 -75 -9 -68 -10 -196 -25 -265 -32 -38 -3 -72 -8
-75 -11 -5 -5 349 4 440 12 123 9 206 16 230 20 14 2 54 6 90 10 36 3 76 8 90
10 14 2 45 7 70 10 25 4 56 8 70 10 14 2 61 9 105 15 44 7 89 14 100 16 11 3
36 7 55 10 19 2 46 7 60 10 14 2 39 7 55 10 17 2 37 7 45 9 8 3 33 7 55 11 42
6 328 69 381 83 l32 9 57 -102 c32 -55 97 -165 144 -244 47 -78 91 -151 96
-160 46 -82 407 -627 431 -652 13 -13 14 -12 5 13 -6 15 -13 38 -15 50 -9 47
-153 577 -221 817 -7 25 -30 106 -50 180 -20 74 -41 148 -46 164 -5 16 -8 31
-6 32 2 2 68 23 148 48 79 24 192 60 251 79 l107 35 7 -32 c16 -67 52 -235 58
-266 2 -14 7 -36 10 -50 6 -25 8 -39 26 -145 5 -33 12 -73 15 -90 10 -57 15
-90 19 -125 3 -19 10 -69 15 -110 6 -41 13 -97 16 -125 3 -27 8 -66 10 -85 2
-19 7 -71 10 -115 3 -44 8 -96 10 -115 26 -209 25 -825 0 -1025 -2 -16 -7 -57
-10 -90 -3 -33 -8 -73 -10 -90 -16 -112 -36 -244 -40 -265 -3 -14 -7 -38 -10
-55 -8 -47 -14 -78 -19 -105 -34 -158 -52 -237 -68 -300 -11 -41 -21 -82 -23
-90 -30 -125 -177 -547 -236 -677 -10 -24 -19 -45 -19 -48 0 -3 -13 -33 -28
-67 -16 -35 -46 -101 -67 -148 -49 -109 -177 -367 -222 -447 -19 -35 -33 -63
-30 -63 10 0 144 129 312 301 479 492 808 944 1050 1444 127 262 182 406 274
720 34 116 89 410 105 560 14 128 17 163 21 210 6 67 6 456 1 525 -9 123 -17
209 -26 280 -5 41 -12 98 -15 125 -3 28 -8 61 -10 75 -2 14 -9 61 -15 105 -12
86 -18 121 -51 285 -12 58 -23 118 -26 134 -5 28 -69 294 -79 328 -4 14 29 34
163 101 851 424 1403 896 1507 1287 20 74 15 221 -9 280 -38 93 -111 178 -204
238 -166 106 -435 186 -731 217 -24 2 -44 6 -46 7 -1 2 22 29 52 61 131 138
244 327 274 455 26 113 15 224 -31 302 -5 8 -13 24 -18 36 -13 30 -109 126
-161 161 -159 108 -428 190 -715 218 -33 3 -76 8 -95 10 -19 3 -102 7 -185 10
l-150 6 86 -30 c326 -113 513 -280 554 -492 7 -34 7 -149 1 -178 -22 -100 -57
-188 -110 -276 -112 -187 -351 -431 -617 -628 l-36 -27 -17 82 c-20 94 -27
129 -30 143 -2 6 -6 28 -11 50 -4 22 -9 49 -12 60 -6 29 -33 184 -39 220 -2
17 -6 41 -9 55 -7 42 -15 100 -21 154 -2 28 -7 65 -9 81 -22 159 -22 671 0
806 2 13 6 56 10 94 3 39 8 79 11 90 5 28 14 76 18 100 3 18 20 100 31 150 58
263 220 667 376 937 40 70 158 258 169 268 3 3 17 23 31 45 78 121 328 420
499 599 63 66 72 79 35 49 -270 -224 -664 -619 -945 -949 -160 -187 -391 -524
-523 -761 -72 -129 -214 -424 -222 -457 -1 -6 -8 -24 -14 -41 -55 -132 -124
-377 -165 -580 -24 -123 -29 -152 -41 -250 -3 -22 -7 -53 -10 -70 -20 -145
-27 -594 -12 -755 4 -41 10 -100 13 -130 3 -30 7 -71 9 -90 2 -19 7 -62 11
-95 3 -33 8 -67 9 -75 2 -8 6 -40 10 -70 10 -80 15 -113 21 -133 6 -18 -6 -24
-261 -142 -245 -113 -246 -114 -251 -77 -2 9 -6 37 -9 62 -4 25 -9 61 -11 80
-2 19 -6 49 -9 65 -2 17 -7 68 -11 115 -3 47 -8 94 -10 105 -22 118 -21 780 1
985 13 113 36 296 40 310 2 8 6 31 9 50 10 68 47 237 81 370 92 366 231 735
398 1060 257 499 628 1021 1056 1484 92 99 439 444 535 531 54 50 111 101 126
115 15 14 40 36 56 50 16 14 65 57 109 95 44 39 105 90 134 115 79 65 117 99
111 100 -3 0 -117 -76 -255 -168z m215 -4650 c146 -118 210 -240 210 -402 0
-111 -19 -180 -87 -315 -96 -188 -327 -438 -606 -653 -119 -93 -349 -244 -356
-235 -4 4 -27 80 -51 168 -23 88 -78 286 -122 440 -44 154 -81 287 -84 295 -2
8 -12 49 -23 90 -11 41 -19 75 -18 76 3 2 188 105 237 132 25 14 57 33 72 43
14 11 29 19 33 19 20 0 368 242 485 338 l135 110 65 -35 c36 -19 85 -51 110
-71z m-2006 -949 c2 -10 17 -76 31 -148 15 -71 33 -156 41 -188 8 -32 19 -77
23 -100 5 -23 41 -187 81 -365 39 -178 69 -330 66 -338 -3 -8 -14 -14 -24 -14
-10 0 -22 -4 -28 -9 -5 -5 -85 -39 -179 -75 -93 -37 -185 -73 -203 -81 -47
-21 -69 -19 -75 8 -2 12 -26 105 -52 207 -26 102 -49 192 -50 200 -15 69 -46
204 -49 209 -2 3 -7 22 -10 41 -3 19 -15 80 -27 135 -11 55 -23 113 -26 129
-2 16 -13 72 -23 125 -14 73 -16 97 -7 103 7 4 66 26 132 48 66 22 172 59 235
84 133 51 137 52 144 29z"/>
</g>
</svg>
