<?xml version="1.0" encoding="UTF-8" standalone="no"?>
<!-- Created with Inkscape (http://www.inkscape.org/) -->

<svg
   xmlns:dc="http://purl.org/dc/elements/1.1/"
   xmlns:cc="http://creativecommons.org/ns#"
   xmlns:rdf="http://www.w3.org/1999/02/22-rdf-syntax-ns#"
   xmlns:svg="http://www.w3.org/2000/svg"
   xmlns="http://www.w3.org/2000/svg"
   xmlns:inkscape="http://www.inkscape.org/namespaces/inkscape"
   version="1.1"
   width="570"
   height="143.75"
   id="svg2"
   xml:space="preserve"><metadata
     id="metadata8"><rdf:RDF><cc:Work
         rdf:about=""><dc:format>image/svg+xml</dc:format><dc:type
           rdf:resource="http://purl.org/dc/dcmitype/StillImage" /></cc:Work></rdf:RDF></metadata><defs
     id="defs6" /><g
     transform="matrix(1.25,0,0,-1.25,0,143.75)"
     id="g10"><g
       transform="scale(0.1,0.1)"
       id="g12"><path
         d="m 275.469,10.0195 c 47.972,44.7188 84.761,88.1211 110.351,130.1915 25.309,42.109 42.27,83.168 50.782,123.168 8.519,40.312 11.019,79.652 7.5,117.891 -3.243,38.55 -9.723,76.519 -19.454,113.902 -9.687,37.699 -19.847,74.887 -30.429,111.68 -10.59,36.757 -19.098,73.437 -25.59,109.929 -6.481,36.789 -7.969,73.547 -4.41,110.348 3.242,37.109 14.101,74.492 32.66,112.152 18.242,37.649 46.793,76.089 85.621,115.229 C 428.672,1008.3 387.461,964.121 358.91,922.051 330.352,879.98 311.371,839.078 301.949,799.352 292.23,759.629 289.02,720.488 292.23,681.93 c 2.969,-38.899 8.981,-78.039 18.079,-117.461 8.871,-39.141 17.703,-79.449 26.531,-120.938 8.82,-41.48 14.14,-84.761 15.89,-129.801 2.071,-45.039 -2.531,-92.699 -13.71,-143.05 -11.481,-50 -32.649,-103.5511 -63.551,-160.6605"
         inkscape:connector-curvature="0"
         id="path14"
         style="fill:#e69c38;fill-opacity:1;fill-rule:evenodd;stroke:none" /><path
         d="m 253.398,579.039 c 49.454,16.211 93.59,34.449 132.422,54.77 38.828,20.269 70.039,41.05 93.59,62.222 18.871,-8.82 30.75,-20.742 35.75,-35.742 5.309,-19.449 -1.449,-40.777 -20.281,-64.019 -18.859,-23.282 -46.789,-46.211 -83.859,-68.872 -37.391,-22.66 -81.411,-43.277 -132.04,-61.796 -10.269,37.386 -18.82,75.199 -25.582,113.437 m 330.622,77.699 c -4.098,13.242 -14.532,23.711 -31.321,31.364 -16.758,7.929 -38.398,13.089 -64.89,15.429 13.242,12.93 22.66,25.59 28.242,37.969 5.59,12.352 6.961,23.828 3.988,34.422 -5.269,15.898 -19.301,27.969 -41.949,36.207 -22.93,7.93 -52.391,12.07 -88.289,12.383 16.488,-4.453 29.847,-10.473 40.16,-18.121 10.59,-7.352 17.539,-16.332 20.777,-26.922 5,-17.969 -0.308,-37.379 -15.898,-58.278 -15.578,-21.171 -39.289,-42.382 -71.09,-63.55 -31.801,-21.219 -69.609,-40.903 -113.48,-59.153 -6.75,42.934 -8.629,86.492 -5.7,130.633 3.239,44.141 13.551,89.059 30.899,134.649 17.34,45.621 44.301,92.109 80.781,139.53 36.52,47.38 85.078,95.94 145.66,145.66 -95.308,-60.62 -169.64,-121.4 -222.93,-182.3 -53.242,-60.941 -87.07,-123.59 -101.519,-188.09 -14.41,-64.449 -10.902,-132.109 10.629,-203.039 -8.559,-2.929 -17.27,-5.75 -26.102,-8.402 C 133.16,558.57 105.199,551.699 78.1211,546.391 50.7812,541.109 24.7305,537.398 0,535.328 c 27.0703,-0.59 56.9492,1.371 89.6094,5.781 32.3786,4.422 66.6406,11.172 102.8906,20.282 11.449,-35.321 27.07,-71.801 46.762,-109.5 -4.102,-1.172 -8.403,-2.5 -12.813,-3.942 -28.828,-8.558 -56.918,-15.469 -84.301,-20.777 -27.109,-5.281 -53.1285,-8.953 -78.1285,-11.024 25.9024,-0.578 54.2615,1.172 85.1995,5.313 30.621,3.828 62.812,9.848 96.64,18.09 20.039,-36.52 43.551,-74.02 70.661,-112.582 -10.899,40.633 -22.11,81.371 -33.551,122.269 3.511,0.903 7.031,1.953 10.582,3.121 44.769,13.243 85.789,28.563 123.168,45.903 37.07,17.066 68.871,34.879 95.39,53.437 26.762,18.832 46.481,37.192 59.141,55.153 12.66,17.929 16.91,34.57 12.77,49.886"
         inkscape:connector-curvature="0"
         id="path16"
         style="fill:#002e6e;fill-opacity:1;fill-rule:evenodd;stroke:none" /><path
         d="m 709.379,639.352 0,36.57 c 32.18,-11.492 66.949,-17.192 104.371,-17.192 52.809,0 79.219,19.301 79.219,57.969 0,32.891 -19.489,49.371 -58.438,49.371 l -43.75,0 c -64.301,0 -96.402,27.891 -96.402,83.75 0,58.75 41.133,88.129 123.43,88.129 35.82,0 69.14,-4.301 100,-12.808 l 0,-36.571 c -30.86,11.45 -64.18,17.192 -100,17.192 -55.86,0 -83.75,-18.672 -83.75,-55.942 0,-32.929 18.91,-49.371 56.722,-49.371 l 43.75,0 c 65.508,0 98.278,-27.929 98.278,-83.75 0,-60.238 -39.688,-90.308 -119.059,-90.308 -37.422,0 -72.191,4.289 -104.371,12.961 z m 317.421,296.41 0,-275 160.62,0 0,-32.192 -200.471,0 0,307.192 39.851,0 z m 419.88,-296.41 c -26.56,-8.672 -55.23,-12.961 -85.94,-12.961 -107.42,0 -161.09,53.347 -161.09,160.148 0,100.941 53.67,151.41 161.09,151.41 30.71,0 59.38,-4.301 85.94,-12.808 l 0,-34.379 c -26.56,10 -53.83,15 -81.72,15 -83.75,0 -125.62,-39.774 -125.62,-119.223 0,-85.23 41.87,-127.809 125.62,-127.809 27.89,0 55.16,5 81.72,15"
         inkscape:connector-curvature="0"
         id="path18"
         style="fill:#002e6e;fill-opacity:1;fill-rule:nonzero;stroke:none" /><path
         d="m 684.379,364.98 0,21.559 c 19.062,-6.801 39.601,-10.148 61.711,-10.148 31.25,0 46.879,11.398 46.879,34.211 0,19.457 -11.52,29.218 -34.528,29.218 l -25.941,0 c -38.051,0 -57.031,16.489 -57.031,49.532 0,34.687 24.301,52.039 72.972,52.039 21.25,0 40.938,-2.582 59.059,-7.661 l 0,-21.558 c -18.121,6.75 -37.809,10.148 -59.059,10.148 -32.929,0 -49.382,-11.011 -49.382,-32.968 0,-19.493 11.14,-29.211 33.441,-29.211 l 25.941,0 c 38.629,0 57.969,-16.532 57.969,-49.539 0,-35.543 -23.441,-53.282 -70.32,-53.282 -22.11,0 -42.649,2.539 -61.711,7.66 z m 161.012,148.442 14.687,0 5.152,-21.57 30.942,0 0,-19.063 -27.344,0 0,-76.559 c 0,-12.421 5.352,-18.589 16.094,-18.589 l 11.25,0 0,-19.071 -17.344,0 c -22.308,0 -33.437,11.961 -33.437,35.942 l 0,118.91 z m 187.889,-94.852 -89.69,0 c 0,-27.3 17.109,-40.929 51.41,-40.929 11.76,0 23.52,1.25 35.31,3.75 l 0,-19.071 c -11.79,-2.5 -26.05,-3.75 -42.81,-3.75 -45,0 -67.5,22.7 -67.5,68.129 0,43.442 21.289,65.153 63.91,65.153 40.82,0 57.26,-24.454 49.37,-73.282 z m -89.69,19.532 68.29,0 c 1.13,23.32 -9.46,35 -31.72,35 -22.93,0 -35.121,-11.68 -36.57,-35 z m 147.78,-52.34 c 9.25,-4.614 19.57,-6.871 30.93,-6.871 27.58,0 41.41,16.597 41.41,49.839 0,29.059 -13.75,43.59 -41.25,43.59 -11.8,0 -22.15,-1.011 -31.09,-2.968 l 0,-83.59 z m -23.44,100.629 c 17.69,3.629 35.98,5.461 54.84,5.461 42.7,0 64.07,-21.09 64.07,-63.282 0,-46.679 -21.53,-70 -64.54,-70 -10.62,0 -20.93,2.11 -30.93,6.41 l 0,-54.691 -23.44,0 0,176.102 z m 148.05,-127.821 0,181.571 23.43,0 0,-62.661 c 13.83,9.571 28.95,14.372 45.32,14.372 30.7,0 46.09,-16.563 46.09,-49.68 l 0,-83.602 -23.44,0 0,84.071 c 0,19.757 -9.84,29.679 -29.53,29.679 -13.55,0 -26.37,-5.621 -38.44,-16.871 l 0,-96.879 -23.43,0 z m 144.1,41.571 c 0,27.257 18.01,40.929 54.06,40.929 13.32,0 24.92,-0.859 34.84,-2.5 l 0,12.5 c 0,14.461 -11.99,21.719 -35.93,21.719 -13.75,0 -27.82,-2.109 -42.19,-6.25 l 0,19.063 c 14.37,4.136 28.44,6.25 42.19,6.25 39.57,0 59.37,-14.211 59.37,-42.653 l 0,-90.629 -11.87,0 -9.38,9.379 c -11.56,-6.25 -25.23,-9.379 -40.94,-9.379 -33.43,0 -50.15,13.828 -50.15,41.571 z m 54.06,21.871 c -20.31,0 -30.47,-7.192 -30.47,-21.563 0,-15.238 8.83,-22.808 26.56,-22.808 16.25,0 29.15,3.468 38.75,10.461 l 0,31.41 c -9.29,1.636 -20.89,2.5 -34.84,2.5 z m 94.38,-63.442 0,133.282 15.78,0 4.22,-17.032 c 16.13,11.328 32.38,17.032 48.75,17.032 30.7,0 46.09,-16.563 46.09,-49.68 l 0,-83.602 -23.44,0 0,84.071 c 0,19.757 -9.84,29.679 -29.53,29.679 -13.55,0 -26.37,-5.621 -38.44,-16.871 l 0,-96.879 -23.43,0 z m 167.73,181.571 -3.91,-55.321 -15.78,0 -3.9,55.321 23.59,0 z m 31.33,-175.161 0,20.309 c 14.76,-5.117 30.19,-7.648 46.25,-7.648 21.25,0 31.87,6.32 31.87,19.058 0,11.871 -6.99,17.813 -20.93,17.813 l -21.72,0 c -27.93,0 -41.88,13.047 -41.88,39.218 0,25.391 18.48,38.122 55.47,38.122 15.94,0 31.29,-2.114 46.09,-6.25 l 0,-20.313 c -14.8,5 -30.15,7.5 -46.09,7.5 -22.19,0 -33.28,-6.367 -33.28,-19.059 0,-11.8 6.56,-17.66 19.69,-17.66 l 21.72,0 c 29.57,0 44.37,-13.121 44.37,-39.371 0,-25.429 -18.44,-38.129 -55.31,-38.129 -16.06,0 -31.49,2.11 -46.25,6.41 z m 214.96,175.161 0,-162.5 95,0 0,-19.071 -118.44,0 0,181.571 23.44,0 z m 118.16,-140 c 0,27.257 18.01,40.929 54.07,40.929 13.32,0 24.92,-0.859 34.84,-2.5 l 0,12.5 c 0,14.461 -11.99,21.719 -35.94,21.719 -13.75,0 -27.81,-2.109 -42.19,-6.25 l 0,19.063 c 14.38,4.136 28.44,6.25 42.19,6.25 39.57,0 59.38,-14.211 59.38,-42.653 l 0,-90.629 -11.88,0 -9.37,9.379 c -11.57,-6.25 -25.24,-9.379 -40.94,-9.379 -33.44,0 -50.16,13.828 -50.16,41.571 z m 54.07,21.871 c -20.32,0 -30.47,-7.192 -30.47,-21.563 0,-15.238 8.82,-22.808 26.56,-22.808 16.25,0 29.14,3.468 38.75,10.461 l 0,31.41 c -9.3,1.636 -20.9,2.5 -34.84,2.5 z m 94.37,-63.442 0,133.282 15.78,0 4.22,-17.032 c 16.13,11.328 32.38,17.032 48.75,17.032 30.7,0 46.09,-16.563 46.09,-49.68 l 0,-83.602 -23.43,0 0,84.071 c 0,19.757 -9.85,29.679 -29.53,29.679 -13.56,0 -26.37,-5.621 -38.44,-16.871 l 0,-96.879 -23.44,0 z m 239.61,110.782 c -8.05,1.957 -17.97,2.968 -29.84,2.968 -28.36,0 -42.5,-15.39 -42.5,-46.09 0,-31.558 13.43,-47.339 40.31,-47.339 12.19,0 22.85,2.257 32.03,6.871 l 0,83.59 z m 23.59,-110.782 c 0,-32.179 -20.46,-48.281 -61.4,-48.281 -16.37,0 -30.9,2.152 -43.6,6.41 l 0,19.063 c 12.89,-4.262 27.54,-6.41 43.91,-6.41 25,0 37.5,9.769 37.5,29.218 l 0,6.41 c -10,-4.3 -20.74,-6.41 -32.19,-6.41 -42.18,0 -63.28,22.418 -63.28,67.352 0,43.937 22.23,65.93 66.72,65.93 18.01,0 35.47,-1.832 52.34,-5.461 l 0,-127.821 z m 150.71,133.282 0,-133.282 -16.1,0 -4.06,17.032 c -16.17,-11.364 -32.42,-17.032 -48.75,-17.032 -30.62,0 -45.94,16.571 -45.94,49.692 l 0,83.59 23.44,0 0,-84.063 c 0,-19.801 9.84,-29.687 29.53,-29.687 13.44,0 26.25,5.628 38.44,16.878 l 0,96.872 23.44,0 z m 29.25,-91.711 c 0,27.257 18.01,40.929 54.07,40.929 13.32,0 24.92,-0.859 34.84,-2.5 l 0,12.5 c 0,14.461 -11.99,21.719 -35.94,21.719 -13.75,0 -27.81,-2.109 -42.18,-6.25 l 0,19.063 c 14.37,4.136 28.43,6.25 42.18,6.25 39.57,0 59.38,-14.211 59.38,-42.653 l 0,-90.629 -11.88,0 -9.37,9.379 c -11.56,-6.25 -25.24,-9.379 -40.94,-9.379 -33.44,0 -50.16,13.828 -50.16,41.571 z m 54.07,21.871 c -20.32,0 -30.47,-7.192 -30.47,-21.563 0,-15.238 8.83,-22.808 26.56,-22.808 16.25,0 29.14,3.468 38.75,10.461 l 0,31.41 c -9.3,1.636 -20.9,2.5 -34.84,2.5 z m 183.43,47.34 c -8.04,1.957 -17.96,2.968 -29.84,2.968 -28.36,0 -42.5,-15.39 -42.5,-46.09 0,-31.558 13.44,-47.339 40.31,-47.339 12.19,0 22.85,2.257 32.03,6.871 l 0,83.59 z m 23.6,-110.782 c 0,-32.179 -20.47,-48.281 -61.41,-48.281 -16.37,0 -30.9,2.152 -43.59,6.41 l 0,19.063 c 12.89,-4.262 27.54,-6.41 43.9,-6.41 25,0 37.5,9.769 37.5,29.218 l 0,6.41 c -10,-4.3 -20.74,-6.41 -32.18,-6.41 -42.19,0 -63.28,22.418 -63.28,67.352 0,43.937 22.22,65.93 66.71,65.93 18.01,0 35.47,-1.832 52.35,-5.461 l 0,-127.821 z m 142.77,60 -89.69,0 c 0,-27.3 17.11,-40.929 51.41,-40.929 11.76,0 23.52,1.25 35.31,3.75 l 0,-19.071 c -11.79,-2.5 -26.05,-3.75 -42.81,-3.75 -45,0 -67.5,22.7 -67.5,68.129 0,43.442 21.29,65.153 63.91,65.153 40.82,0 57.26,-24.454 49.37,-73.282 z m -89.69,19.532 68.29,0 c 1.13,23.32 -9.46,35 -31.72,35 -22.93,0 -35.12,-11.68 -36.57,-35 z m 324.54,-73.122 c -15.75,-5.121 -32.66,-7.66 -50.79,-7.66 -63.55,0 -95.31,31.489 -95.31,94.532 0,59.687 31.76,89.539 95.31,89.539 18.13,0 35.04,-2.582 50.79,-7.661 l 0,-20.308 c -15.75,5.93 -31.84,8.898 -48.29,8.898 -49.49,0 -74.21,-23.511 -74.21,-70.468 0,-50.313 24.72,-75.461 74.21,-75.461 16.45,0 32.54,2.961 48.29,8.898 l 0,-20.309 z m 90.5,12.661 c 26.57,0 39.85,16.007 39.85,48.121 0,31.328 -13.28,47.027 -39.85,47.027 -26.68,0 -40,-15.699 -40,-47.027 0,-32.114 13.32,-48.121 40,-48.121 z m -63.59,47.648 c 0,44.383 21.17,66.563 63.59,66.563 42.27,0 63.44,-22.18 63.44,-66.563 0,-44.367 -21.17,-66.559 -63.44,-66.559 -42.18,0 -63.4,22.192 -63.59,66.559 z m 156.45,-66.719 0,133.282 15.78,0 4.22,-17.032 c 16.13,11.328 32.38,17.032 48.74,17.032 30.71,0 46.1,-16.563 46.1,-49.68 l 0,-83.602 -23.44,0 0,84.071 c 0,19.757 -9.84,29.679 -29.53,29.679 -13.55,0 -26.37,-5.621 -38.44,-16.871 l 0,-96.879 -23.43,0 z m 150.54,6.41 0,20.309 c 14.77,-5.117 30.2,-7.648 46.25,-7.648 21.25,0 31.88,6.32 31.88,19.058 0,11.871 -7,17.813 -20.94,17.813 l -21.72,0 c -27.93,0 -41.87,13.047 -41.87,39.218 0,25.391 18.47,38.122 55.46,38.122 15.94,0 31.29,-2.114 46.1,-6.25 l 0,-20.313 c -14.81,5 -30.16,7.5 -46.1,7.5 -22.18,0 -33.28,-6.367 -33.28,-19.059 0,-11.8 6.57,-17.66 19.69,-17.66 l 21.72,0 c 29.57,0 44.37,-13.121 44.37,-39.371 0,-25.429 -18.43,-38.129 -55.31,-38.129 -16.05,0 -31.48,2.11 -46.25,6.41 z m 245.86,126.872 0,-133.282 -16.09,0 -4.07,17.032 c -16.17,-11.364 -32.42,-17.032 -48.74,-17.032 -30.63,0 -45.94,16.571 -45.94,49.692 l 0,83.59 23.44,0 0,-84.063 c 0,-19.801 9.84,-29.687 29.53,-29.687 13.43,0 26.25,5.628 38.43,16.878 l 0,96.872 23.44,0 z m 59.1,48.289 0,-181.571 -23.43,0 0,181.571 23.43,0 z m 37.07,-26.719 14.69,0 5.16,-21.57 30.93,0 0,-19.063 -27.34,0 0,-76.559 c 0,-12.421 5.35,-18.589 16.09,-18.589 l 11.25,0 0,-19.071 -17.34,0 c -22.3,0 -33.44,11.961 -33.44,35.942 l 0,118.91 z m 74.61,-113.281 c 0,27.257 18.01,40.929 54.06,40.929 13.33,0 24.93,-0.859 34.85,-2.5 l 0,12.5 c 0,14.461 -11.99,21.719 -35.94,21.719 -13.75,0 -27.81,-2.109 -42.19,-6.25 l 0,19.063 c 14.38,4.136 28.44,6.25 42.19,6.25 39.57,0 59.38,-14.211 59.38,-42.653 l 0,-90.629 -11.88,0 -9.37,9.379 c -11.57,-6.25 -25.24,-9.379 -40.94,-9.379 -33.44,0 -50.16,13.828 -50.16,41.571 z m 54.06,21.871 c -20.31,0 -30.46,-7.192 -30.46,-21.563 0,-15.238 8.82,-22.808 26.56,-22.808 16.25,0 29.14,3.468 38.75,10.461 l 0,31.41 c -9.3,1.636 -20.9,2.5 -34.85,2.5 z m 94.38,-63.442 0,133.282 15.78,0 4.22,-17.032 c 16.13,11.328 32.38,17.032 48.75,17.032 30.7,0 46.09,-16.563 46.09,-49.68 l 0,-83.602 -23.43,0 0,84.071 c 0,19.757 -9.85,29.679 -29.53,29.679 -13.56,0 -26.37,-5.621 -38.44,-16.871 l 0,-96.879 -23.44,0 z m 252.11,3.75 c -11.06,-2.5 -22.93,-3.75 -35.63,-3.75 -48.24,0 -72.34,23.051 -72.34,69.219 0,42.699 24.1,64.063 72.34,64.063 12.7,0 24.57,-1.25 35.63,-3.75 l 0,-19.063 c -11.06,2.5 -22.03,3.75 -32.97,3.75 -34.3,0 -51.41,-15 -51.41,-45 0,-33.437 17.11,-50.148 51.41,-50.148 10.94,0 21.91,1.25 32.97,3.75 l 0,-19.071 z m 10.51,129.532 25.62,0 37.66,-104.063 38.9,104.063 25,0 -55.46,-137.18 c -9.81,-24.262 -24.5,-39.383 -44.07,-45.32 l -9.06,16.57 c 14.88,6.558 25.7,17.18 32.5,31.867"
         inkscape:connector-curvature="0"
         id="path20"
         style="fill:#e69d3a;fill-opacity:1;fill-rule:nonzero;stroke:none" /></g></g></svg>